<svg
  width="34"
  height="134"
  viewBox="0 0 34 134"
  fill="none"
  xmlns="http://www.w3.org/2000/svg"
>
  <circle cx="31.9993" cy="132" r="1.66667" fill="#13C296" />
  <circle cx="31.9993" cy="117.333" r="1.66667" fill="#13C296" />
  <circle cx="31.9993" cy="102.667" r="1.66667" fill="#13C296" />
  <circle cx="31.9993" cy="88" r="1.66667" fill="#13C296" />
  <circle cx="31.9993" cy="73.3333" r="1.66667" fill="#13C296" />
  <circle cx="31.9993" cy="59" r="1.66667" fill="#13C296" />
  <circle cx="31.9993" cy="45" r="1.66667" fill="#13C296" />
  <circle cx="31.9993" cy="30.6666" r="1.66667" fill="#13C296" />
  <circle cx="31.9993" cy="16" r="1.66667" fill="#13C296" />
  <circle cx="31.9993" cy="1.66665" r="1.66667" fill="#13C296" />

  <circle cx="17.3333" cy="132" r="1.66667" fill="#13C296" />
  <circle cx="17.3333" cy="117.333" r="1.66667" fill="#13C296" />
  <circle cx="17.3333" cy="102.667" r="1.66667" fill="#13C296" />
  <circle cx="17.3333" cy="88" r="1.66667" fill="#13C296" />
  <circle cx="17.3333" cy="73.3333" r="1.66667" fill="#13C296" />
  <circle cx="17.3333" cy="59" r="1.66667" fill="#13C296" />
  <circle cx="17.3333" cy="45" r="1.66667" fill="#13C296" />
  <circle cx="17.3333" cy="30.6666" r="1.66667" fill="#13C296" />
  <circle cx="17.3333" cy="16" r="1.66667" fill="#13C296" />
  <circle cx="17.3333" cy="1.66665" r="1.66667" fill="#13C296" />

  <circle cx="2.66536" cy="132" r="1.66667" fill="#13C296" />
  <circle cx="2.66536" cy="117.333" r="1.66667" fill="#13C296" />
  <circle cx="2.66536" cy="102.667" r="1.66667" fill="#13C296" />
  <circle cx="2.66536" cy="88" r="1.66667" fill="#13C296" />
  <circle cx="2.66536" cy="73.3333" r="1.66667" fill="#13C296" />
  <circle cx="2.66536" cy="59" r="1.66667" fill="#13C296" />
  <circle cx="2.66536" cy="45" r="1.66667" fill="#13C296" />
  <circle cx="2.66536" cy="30.6666" r="1.66667" fill="#13C296" />
  <circle cx="2.66536" cy="16" r="1.66667" fill="#13C296" />
  <circle cx="2.66536" cy="1.66665" r="1.66667" fill="#13C296" />
</svg>
